<svg width="400" height="200" viewBox="0 0 400 200" xmlns="http://www.w3.org/2000/svg">
  <rect width="400" height="200" fill="#1e1b4b"/>
  
  <rect x="70" y="45" width="50" height="65" rx="6" fill="#2e1065" stroke="#7c3aed" stroke-width="2"/>
  <text x="95" y="85" text-anchor="middle" font-size="28" font-family="serif" fill="#ef4444">♥</text>
  <text x="78" y="62" font-size="14" font-family="serif" fill="#fbbf24" font-weight="bold">A</text>
  
  <rect x="130" y="45" width="50" height="65" rx="6" fill="#3b0764" stroke="#7c3aed" stroke-width="2"/>
  <text x="155" y="85" text-anchor="middle" font-size="28" font-family="serif" fill="#1e293b">♠</text>
  <text x="138" y="62" font-size="14" font-family="serif" fill="#fbbf24" font-weight="bold">K</text>
  
  <rect x="190" y="45" width="50" height="65" rx="6" fill="#2e1065" stroke="#7c3aed" stroke-width="2"/>
  <text x="215" y="85" text-anchor="middle" font-size="28" font-family="serif" fill="#10b981">♣</text>
  <text x="198" y="62" font-size="14" font-family="serif" fill="#fbbf24" font-weight="bold">Q</text>
  
  <rect x="250" y="45" width="50" height="65" rx="6" fill="#3b0764" stroke="#7c3aed" stroke-width="2"/>
  <text x="275" y="85" text-anchor="middle" font-size="28" font-family="serif" fill="#ef4444">♦</text>
  <text x="258" y="62" font-size="14" font-family="serif" fill="#fbbf24" font-weight="bold">J</text>
  
  <rect x="310" y="45" width="50" height="65" rx="6" fill="#2e1065" stroke="#7c3aed" stroke-width="2"/>
  <text x="335" y="85" text-anchor="middle" font-size="28" font-family="serif" fill="#a78bfa">🃏</text>
  
  <circle cx="120" cy="140" r="12" fill="#ef4444" stroke="#fca5a5" stroke-width="1.5"/>
  <circle cx="120" cy="140" r="6" fill="#dc2626"/>
  
  <circle cx="160" cy="140" r="12" fill="#3b82f6" stroke="#93c5fd" stroke-width="1.5"/>
  <circle cx="160" cy="140" r="6" fill="#2563eb"/>
  
  <circle cx="200" cy="140" r="12" fill="#10b981" stroke="#6ee7b7" stroke-width="1.5"/>
  <circle cx="200" cy="140" r="6" fill="#059669"/>
  
  <circle cx="240" cy="140" r="12" fill="#f59e0b" stroke="#fcd34d" stroke-width="1.5"/>
  <circle cx="240" cy="140" r="6" fill="#d97706"/>
  
  <circle cx="280" cy="140" r="12" fill="#8b5cf6" stroke="#c4b5fd" stroke-width="1.5"/>
  <circle cx="280" cy="140" r="6" fill="#7c3aed"/>

  <text x="200" y="178" text-anchor="middle" font-size="13" font-family="sans-serif" fill="#6d28d9" font-weight="bold" letter-spacing="3">POKER</text>
</svg>